<svg width="32" height="42" viewBox="0 0 32 42" fill="none" xmlns="http://www.w3.org/2000/svg">
<path d="M23.0915 0C23.0915 0 26.802 9.07726 10.8998 15.1744C2.25892 18.4865 -4.37778 26.9758 3.54643 40.0895C4.20269 34.2279 7.01666 21.3037 19.1166 18.3546C19.1166 18.3546 7.85471 22.5657 6.85987 41.6277C12.6467 42.4402 26.2185 42.9861 30.2479 31.2085C35.5688 15.6476 23.0915 0 23.0915 0Z" fill="#8DCE97"/>
<path d="M6.86512 41.5484C19.1501 36.6455 28.0889 25.16 29.3226 11.4489C26.8111 4.67443 23.0915 0 23.0915 0C23.0915 0 26.802 9.07726 10.8998 15.1744C2.25892 18.4865 -4.37778 26.9758 3.54643 40.0895C4.20269 34.2279 7.01666 21.3037 19.1166 18.3546C19.1159 18.3546 7.88753 22.5553 6.86512 41.5484Z" fill="#8DCE97"/>
</svg>
