<svg width="177" height="42" viewBox="0 0 177 42" fill="none" xmlns="http://www.w3.org/2000/svg">
<path d="M23.0915 0.00012207C23.0915 0.00012207 26.802 9.07738 10.8998 15.1745C2.25892 18.4866 -4.37778 26.9759 3.54643 40.0896C4.20269 34.228 7.01666 21.3038 19.1166 18.3547C19.1166 18.3547 7.85471 22.5658 6.85987 41.6278C12.6467 42.4403 26.2185 42.9862 30.2479 31.2086C35.5688 15.6477 23.0915 0.00012207 23.0915 0.00012207Z" fill="#8DCE97"/>
<path d="M6.86512 41.5485C19.1501 36.6456 28.0889 25.1601 29.3226 11.449C26.8111 4.67455 23.0915 0.00012207 23.0915 0.00012207C23.0915 0.00012207 26.802 9.07738 10.8998 15.1745C2.25892 18.4866 -4.37778 26.9759 3.54643 40.0896C4.20269 34.228 7.01666 21.3038 19.1166 18.3547C19.1159 18.3547 7.88753 22.5554 6.86512 41.5485Z" fill="#8DCE97"/>
<path d="M2.32059 15.4771C2.95487 15.4771 3.46905 14.9629 3.46905 14.3286C3.46905 13.6943 2.95487 13.1802 2.32059 13.1802C1.68631 13.1802 1.17212 13.6943 1.17212 14.3286C1.17212 14.9629 1.68631 15.4771 2.32059 15.4771Z" fill="#8DCE97"/>
<path d="M5.92991 14.0006C6.38295 14.0006 6.75021 13.6333 6.75021 13.1803C6.75021 12.7272 6.38295 12.36 5.92991 12.36C5.47688 12.36 5.10962 12.7272 5.10962 13.1803C5.10962 13.6333 5.47688 14.0006 5.92991 14.0006Z" fill="#8DCE97"/>
<path d="M5.19161 7.43803C6.32421 7.43803 7.24236 6.51988 7.24236 5.38729C7.24236 4.2547 6.32421 3.33655 5.19161 3.33655C4.05902 3.33655 3.14087 4.2547 3.14087 5.38729C3.14087 6.51988 4.05902 7.43803 5.19161 7.43803Z" fill="#8DCE97"/>
<path d="M11.508 10.7193C11.8705 10.7193 12.1643 10.4255 12.1643 10.0631C12.1643 9.70067 11.8705 9.40686 11.508 9.40686C11.1456 9.40686 10.8518 9.70067 10.8518 10.0631C10.8518 10.4255 11.1456 10.7193 11.508 10.7193Z" fill="#8DCE97"/>
<path d="M17.0046 8.2584C18.0466 8.2584 18.8913 7.41369 18.8913 6.3717C18.8913 5.3297 18.0466 4.48499 17.0046 4.48499C15.9626 4.48499 15.1179 5.3297 15.1179 6.3717C15.1179 7.41369 15.9626 8.2584 17.0046 8.2584Z" fill="#8DCE97"/>
<g opacity="0.8">
<path opacity="0.8" d="M50.7156 37.8958C48.8751 37.8958 47.2116 37.4962 45.7251 36.6969C44.2562 35.8977 43.0971 34.7943 42.2476 33.3869C41.4159 31.9621 41 30.3723 41 28.6174C41 26.8625 41.4159 25.2813 42.2476 23.8739C43.0971 22.4491 44.2651 21.3371 45.7516 20.5378C47.2382 19.7386 48.9017 19.3389 50.7422 19.3389C52.1225 19.3389 53.3967 19.5648 54.5647 20.0166C55.7327 20.4683 56.7237 21.1286 57.5378 21.9974L56.2902 23.2223C54.839 21.7802 53.0074 21.0591 50.7953 21.0591C49.3264 21.0591 47.9903 21.3892 46.7869 22.0495C45.5835 22.7097 44.6367 23.6133 43.9465 24.76C43.2741 25.9068 42.9378 27.1926 42.9378 28.6174C42.9378 30.0422 43.2741 31.3279 43.9465 32.4747C44.6367 33.6215 45.5835 34.525 46.7869 35.1853C47.9903 35.8455 49.3264 36.1757 50.7953 36.1757C53.0251 36.1757 54.8567 35.4459 56.2902 33.9864L57.5378 35.2113C56.7237 36.0801 55.7239 36.7491 54.5382 37.2182C53.3702 37.67 52.096 37.8958 50.7156 37.8958Z" fill="#213E26"/>
<path opacity="0.8" d="M66.0042 23.926C67.827 23.926 69.2251 24.3778 70.1984 25.2813C71.1717 26.1675 71.6584 27.488 71.6584 29.2429V37.7395H69.8533V35.6023C69.4286 36.3147 68.8003 36.8707 67.9686 37.2703C67.1545 37.67 66.1812 37.8698 65.0486 37.8698C63.4912 37.8698 62.2525 37.5049 61.3322 36.7751C60.412 36.0454 59.9519 35.081 59.9519 33.8821C59.9519 32.718 60.3766 31.7797 61.226 31.0673C62.0932 30.3549 63.4647 29.9987 65.3406 29.9987H69.7737V29.1647C69.7737 27.9832 69.4374 27.0883 68.7649 26.4802C68.0925 25.8547 67.1103 25.5419 65.8184 25.5419C64.9336 25.5419 64.0841 25.6896 63.27 25.985C62.456 26.263 61.7569 26.654 61.1729 27.1579L60.3235 25.7765C61.0314 25.1857 61.8808 24.734 62.8719 24.4212C63.8629 24.0911 64.907 23.926 66.0042 23.926ZM65.3406 36.4103C66.4024 36.4103 67.3138 36.1757 68.0748 35.7065C68.8357 35.22 69.402 34.525 69.7737 33.6215V31.3801H65.3937C63.0046 31.3801 61.81 32.1967 61.81 33.83C61.81 34.6293 62.1197 35.2635 62.7391 35.7326C63.3585 36.1844 64.2257 36.4103 65.3406 36.4103Z" fill="#213E26"/>
<path opacity="0.8" d="M80.5203 37.8698C79.3877 37.8698 78.2993 37.7134 77.2552 37.4006C76.2288 37.0705 75.4236 36.6622 74.8396 36.1757L75.689 34.7161C76.273 35.1679 77.0075 35.5415 77.8923 35.8369C78.7772 36.1149 79.6974 36.2539 80.653 36.2539C81.9272 36.2539 82.8651 36.0627 83.4668 35.6805C84.0862 35.2808 84.3959 34.7248 84.3959 34.0124C84.3959 33.5086 84.2278 33.1176 83.8916 32.8396C83.5553 32.5442 83.1306 32.327 82.6174 32.188C82.1042 32.0316 81.4228 31.884 80.5734 31.745C79.4408 31.5365 78.5294 31.3279 77.8392 31.1194C77.149 30.8936 76.5562 30.52 76.0607 29.9987C75.5829 29.4775 75.3439 28.7564 75.3439 27.8355C75.3439 26.6887 75.8306 25.7504 76.8039 25.0207C77.7773 24.2909 79.1311 23.926 80.8654 23.926C81.7679 23.926 82.6705 24.0477 83.573 24.2909C84.4756 24.5168 85.2188 24.8209 85.8028 25.2031L84.9799 26.6887C83.8296 25.9068 82.4581 25.5159 80.8654 25.5159C79.662 25.5159 78.7506 25.7244 78.1312 26.1414C77.5295 26.5584 77.2287 27.1057 77.2287 27.7834C77.2287 28.3046 77.3968 28.7216 77.733 29.0344C78.087 29.3472 78.5205 29.5817 79.0338 29.7381C79.547 29.8771 80.2548 30.0248 81.1574 30.1812C82.2723 30.3897 83.166 30.5982 83.8385 30.8067C84.511 31.0152 85.0861 31.3714 85.5639 31.8753C86.0417 32.3792 86.2807 33.0742 86.2807 33.9603C86.2807 35.1592 85.7674 36.1149 84.741 36.8273C83.7323 37.5223 82.3254 37.8698 80.5203 37.8698Z" fill="#213E26"/>
<path opacity="0.8" d="M94.6493 23.926C96.4721 23.926 97.8701 24.3778 98.8435 25.2813C99.8168 26.1675 100.303 27.488 100.303 29.2429V37.7395H98.4984V35.6023C98.0737 36.3147 97.4454 36.8707 96.6137 37.2703C95.7996 37.67 94.8263 37.8698 93.6937 37.8698C92.1363 37.8698 90.8976 37.5049 89.9773 36.7751C89.0571 36.0454 88.5969 35.081 88.5969 33.8821C88.5969 32.718 89.0217 31.7797 89.8711 31.0673C90.7383 30.3549 92.1098 29.9987 93.9857 29.9987H98.4187V29.1647C98.4187 27.9832 98.0825 27.0883 97.41 26.4802C96.7375 25.8547 95.7554 25.5419 94.4635 25.5419C93.5786 25.5419 92.7292 25.6896 91.9151 25.985C91.1011 26.263 90.402 26.654 89.818 27.1579L88.9686 25.7765C89.6765 25.1857 90.5259 24.734 91.5169 24.4212C92.508 24.0911 93.5521 23.926 94.6493 23.926ZM93.9857 36.4103C95.0475 36.4103 95.9589 36.1757 96.7198 35.7065C97.4808 35.22 98.0471 34.525 98.4187 33.6215V31.3801H94.0388C91.6497 31.3801 90.4551 32.1967 90.4551 33.83C90.4551 34.6293 90.7648 35.2635 91.3842 35.7326C92.0036 36.1844 92.8708 36.4103 93.9857 36.4103Z" fill="#213E26"/>
<path opacity="0.8" d="M113.652 37.7395L119.226 24.2909C119.571 23.4569 119.81 22.7271 119.81 22.1277C119.81 20.8766 118.987 19.2607 116.784 19.2607C115.191 19.2607 113.837 20.1729 113.837 21.8149C113.837 23.2223 115.005 24.3691 116.492 24.3691C118.058 24.3691 118.775 23.3005 118.775 22.1798C118.775 21.1373 118.191 20.5899 117.421 20.3293C117.262 20.2772 117.209 20.199 117.209 20.0687C117.209 19.9384 117.315 19.8341 117.448 19.8341C117.527 19.8341 117.633 19.8602 117.74 19.8862C118.509 20.0947 119.306 20.8766 119.306 22.1537C119.306 22.9878 118.775 24.1606 118.324 25.2031L115.085 32.8135H114.687L109.856 19.9123H112.006V19.4953H102.582V19.9123H104.122L110.148 35.8369C110.599 37.0358 111.263 37.7395 112.563 37.7395H113.652Z" fill="#213E26"/>
<path opacity="0.8" d="M128.799 37.3747C126.516 37.3747 125.985 35.446 125.985 32.553H127.737C130.817 32.553 133.577 31.719 133.577 28.9824C133.577 26.0112 130.551 25.0208 127.498 25.0208C123.278 25.0208 120.597 27.4446 120.597 31.5105C120.597 35.8109 123.357 38.0002 128.003 38.0002C131.162 38.0002 133.126 36.254 133.63 33.4652L133.153 33.387L133.1 33.6216C132.622 35.9152 130.896 37.3747 128.799 37.3747ZM125.959 30.2073C125.959 26.1676 126.516 25.4899 127.498 25.4899C128.215 25.4899 128.746 26.1936 128.746 28.9563C128.746 30.8589 128.295 32.0839 126.622 32.0839H125.959V30.2073Z" fill="#213E26"/>
<path opacity="0.8" d="M141.199 27.1319V25.0208C139.421 25.3857 137.722 25.516 135.89 25.516H134.298V25.933H136.182V37.088H134.536V37.505H143.084V37.088H141.093V31.9014C141.093 27.7835 142.128 25.4899 144.358 25.4899C145.34 25.4899 145.924 26.0112 146.163 26.3239C146.27 26.4803 146.323 26.5846 146.323 26.7149C146.323 26.8713 146.216 26.9494 146.084 26.9494C145.898 26.9494 145.818 26.7409 145.659 26.5585C145.5 26.3761 145.102 26.0372 144.491 26.0372C143.456 26.0372 142.739 26.8452 142.739 27.8877C142.739 29.0606 143.668 29.8424 144.81 29.8424C146.243 29.8424 147.066 28.7478 147.066 27.4968C147.066 26.1415 145.924 25.0208 144.332 25.0208C142.898 25.0208 141.863 25.933 141.332 27.1319H141.199Z" fill="#213E26"/>
<path opacity="0.8" d="M161.415 19C159.637 19.3649 157.938 19.4952 156.106 19.4952H154.514V19.9122H156.398V26.8711H156.266C155.655 25.6461 154.567 25.0206 152.921 25.0206C149.098 25.0206 147.744 27.7572 147.744 31.5103C147.744 35.0027 149.258 38 152.549 38C154.407 38 155.575 37.4005 156.266 35.7064H156.398V37.5048H163.061V37.0878H161.415V19ZM156.504 31.5103C156.504 33.882 155.867 36.8272 154.487 36.8272C153.292 36.8272 153.107 34.4554 153.107 31.5103C153.107 27.8093 153.452 25.9849 154.487 25.9849C155.469 25.9849 156.504 27.5487 156.504 30.8066V31.5103Z" fill="#213E26"/>
<path opacity="0.8" d="M172.169 37.3747C169.886 37.3747 169.355 35.446 169.355 32.553H171.107C174.186 32.553 176.947 31.719 176.947 28.9824C176.947 26.0112 173.921 25.0208 170.868 25.0208C166.647 25.0208 163.966 27.4446 163.966 31.5105C163.966 35.8109 166.727 38.0002 171.372 38.0002C174.531 38.0002 176.496 36.254 177 33.4652L176.522 33.387L176.469 33.6216C175.991 35.9152 174.266 37.3747 172.169 37.3747ZM169.328 30.2073C169.328 26.1676 169.886 25.4899 170.868 25.4899C171.585 25.4899 172.116 26.1936 172.116 28.9563C172.116 30.8589 171.664 32.0839 169.992 32.0839H169.328V30.2073Z" fill="#213E26"/>
</g>
</svg>
